<svg width="134" height="48" viewBox="0 0 134 48" fill="none" xmlns="http://www.w3.org/2000/svg">
<g clip-path="url(#clip0_610_36922)">
<path d="M15.0354 6H0.400391V41L15.0354 6Z" fill="#6E7175"/>
<path d="M25.332 6H39.9479V41L25.332 6Z" fill="#6E7175"/>
<path d="M20.1846 18.8999L29.4995 41.0001H23.388L20.6041 33.9639H13.7871L20.1846 18.8999Z" fill="#6E7175"/>
<path d="M63.824 28.2577L65.5496 33.2059C65.6069 33.3298 65.6927 33.3871 65.8452 33.3871H69.1631C69.3443 33.3871 69.3729 33.3012 69.3443 33.1201L62.4892 14.0803C62.4606 13.9278 62.432 13.8992 62.2794 13.8992H58.1606C58.0463 13.8992 57.9795 13.985 57.9795 14.1089C57.9223 15.11 57.8365 15.4151 57.7125 15.7107L51.6011 33.0915C51.5725 33.3012 51.6393 33.3871 51.8109 33.3871H54.776C54.9572 33.3871 55.043 33.3298 55.1097 33.1487L56.7401 28.2577H63.824ZM57.6839 25.0256C58.5802 22.3179 59.7624 18.8474 60.2391 16.8643H60.2677C60.8588 18.9428 62.2508 23.0615 62.8801 25.0256H57.6839Z" fill="#6E7175"/>
<path d="M78.1576 33.6828C79.9405 33.6828 81.8378 33.3587 83.7637 32.5292C83.9162 32.472 83.9448 32.4052 83.9448 32.2622C83.8876 31.7283 83.8209 30.956 83.8209 30.3649V12.4407C83.8209 12.3262 83.8209 12.269 83.6779 12.269H80.4458C80.3219 12.269 80.2646 12.3262 80.2646 12.4788V18.5521C79.7593 18.4949 79.4066 18.4663 78.9871 18.4663C73.7718 18.4663 70.5684 21.9081 70.5684 26.208C70.5684 31.1944 73.8577 33.6828 78.1576 33.6828ZM80.2646 30.3649C79.7307 30.5365 79.1396 30.6033 78.5389 30.6033C76.1745 30.6033 74.239 29.2685 74.239 26.0269C74.239 23.1571 76.2317 21.46 78.8726 21.46C79.4066 21.46 79.8737 21.5172 80.2646 21.6698V30.3649Z" fill="#6E7175"/>
<path d="M94.2557 18.4661C89.8032 18.4661 87.0479 21.8793 87.0479 26.0934C87.0479 29.8594 89.2407 33.6826 94.189 33.6826C98.3745 33.6826 101.311 30.6031 101.311 25.9981C101.311 21.9365 98.8226 18.4661 94.2557 18.4661ZM94.0745 21.4598C96.5916 21.4598 97.6594 23.6241 97.6594 26.0934C97.6594 29.1444 96.0863 30.6603 94.2557 30.6603C91.9961 30.6603 90.6613 28.763 90.6613 26.0267C90.6613 23.2141 92.0819 21.4598 94.0745 21.4598Z" fill="#6E7175"/>
<path d="M104.652 12.269C104.528 12.269 104.442 12.3262 104.442 12.4788V32.7675C104.442 32.8534 104.528 33.0059 104.652 33.0345C106.073 33.4731 107.56 33.6828 109.095 33.6828C113.49 33.6828 117.762 30.956 117.762 25.4644C117.762 21.4886 115.035 18.4663 110.764 18.4663C109.782 18.4663 108.866 18.6188 108.065 18.8858L108.027 12.5074C108.027 12.2976 107.97 12.269 107.76 12.269H104.652ZM114.11 25.8267C114.11 29.1159 111.86 30.6605 109.429 30.6605C108.923 30.6605 108.475 30.6319 108.065 30.5079V21.8509C108.533 21.6698 109.095 21.5172 110.134 21.5172C112.48 21.5172 114.11 23.0045 114.11 25.8267Z" fill="#6E7175"/>
<path d="M129.824 26.8943C131.273 26.8943 132.465 26.8657 132.875 26.7703C133.027 26.7417 133.084 26.6845 133.113 26.5606C133.199 26.2364 133.237 25.5595 133.237 24.73C133.237 21.9079 131.54 18.4661 127.154 18.4661C122.673 18.4661 120.185 22.1177 120.185 26.2364C120.185 29.888 122.11 33.6826 127.507 33.6826C129.528 33.6826 130.834 33.3585 131.959 32.8246C132.074 32.7673 132.131 32.672 132.131 32.5004V30.031C132.131 29.888 132.045 29.8594 131.959 29.9166C130.834 30.3933 129.614 30.6317 128.279 30.6317C125.257 30.6317 123.884 28.9632 123.798 26.8943H129.824ZM123.798 24.3391C124.036 22.8899 124.952 21.3168 127.001 21.3168C129.261 21.3168 129.852 23.2141 129.852 24.0722C129.852 24.1008 129.852 24.2247 129.852 24.3105C129.728 24.3391 129.347 24.3391 128.222 24.3391H123.798Z" fill="#6E7175"/>
</g>
<defs>
<clipPath id="clip0_610_36922">
<rect width="133" height="48" fill="white" transform="translate(0.400391)"/>
</clipPath>
</defs>
</svg>
