<svg width="122" height="48" viewBox="0 0 122 48" fill="none" xmlns="http://www.w3.org/2000/svg">
<g clip-path="url(#clip0_610_36916)">
<path d="M38.5249 32.4265L39.993 28.995C41.6005 30.1854 43.6972 30.8155 45.7943 30.8155C47.3321 30.8155 48.3105 30.2205 48.3105 29.3103C48.2754 26.7891 39.0492 28.7499 38.979 22.4113C38.9439 19.1898 41.81 16.7037 45.8645 16.7037C48.2754 16.7037 50.6874 17.2992 52.3996 18.665L51.0277 22.1697C49.4523 21.1567 47.5065 20.4504 45.6545 20.4504C44.3964 20.4504 43.5573 21.0454 43.5573 21.8163C43.5924 24.3024 52.8893 22.9366 52.9941 28.995C52.9941 32.2866 50.1977 34.5978 46.2134 34.5978C43.2781 34.5978 40.587 33.8976 38.5244 32.4265H38.5249ZM96.983 27.7524C96.6124 28.4109 96.0733 28.9589 95.4211 29.3403C94.7688 29.7217 94.0269 29.9227 93.2713 29.9228C90.9165 29.9228 89.0078 28.0101 89.0078 25.6508C89.0078 23.2914 90.9165 21.3787 93.2713 21.3787C94.0269 21.3788 94.7688 21.5798 95.4211 21.9612C96.0733 22.3426 96.6124 22.8906 96.983 23.5491L101.065 21.2835C99.5357 18.5513 96.6196 16.7037 93.2713 16.7037C88.3397 16.7037 84.3418 20.7091 84.3418 25.6508C84.3418 30.5919 88.3397 34.5978 93.2713 34.5978C96.6196 34.5978 99.5357 32.7502 101.065 30.018L96.983 27.7524ZM55.6426 34.2474H60.7452V9.25586H55.6431L55.6426 34.2474ZM103.641 9.25586V34.2474H108.744V26.76L114.79 34.2474H121.312L113.623 25.3525L120.753 17.0526H114.511L108.744 23.9531V9.25586H103.641ZM76.4654 17.0536V19.0851C75.6268 17.6841 73.5647 16.7037 71.3979 16.7037C66.9244 16.7037 63.3947 20.661 63.3947 25.6332C63.3947 30.6055 66.9244 34.5978 71.3979 34.5978C73.5647 34.5978 75.6268 33.6174 76.4654 32.2164V34.2474H81.568V17.0536H76.4654ZM76.4654 27.787C75.7316 29.0125 74.1938 29.9223 72.4816 29.9223C70.1263 29.9223 68.2176 28.0101 68.2176 25.6508C68.2176 23.2914 70.1263 21.3787 72.4816 21.3787C74.1938 21.3787 75.7316 22.3241 76.4654 23.5842V27.787Z" fill="#6E7175"/>
<path d="M11.5777 8.70361C9.92408 8.70361 8.58378 10.0469 8.58378 11.7035C8.58339 12.0971 8.66051 12.4868 8.81075 12.8506C8.961 13.2143 9.18141 13.5449 9.45942 13.8235C9.73743 14.1021 10.0676 14.3231 10.431 14.4741C10.7945 14.6251 11.1841 14.703 11.5777 14.7034H14.572V11.7035C14.5727 10.9086 14.2576 10.1461 13.6961 9.58348C13.1345 9.0209 12.3725 8.70441 11.5777 8.70361ZM11.5777 16.7033H3.59349C1.93991 16.7033 0.599609 18.0466 0.599609 19.7037C0.599609 21.3603 1.93991 22.7036 3.59349 22.7036H11.5782C13.2312 22.7036 14.572 21.3603 14.572 19.7037C14.572 18.0466 13.2312 16.7033 11.5777 16.7033Z" fill="#6E7175"/>
<path d="M30.5408 19.7037C30.5408 18.0466 29.2 16.7033 27.5464 16.7033C25.8928 16.7033 24.5525 18.0466 24.5525 19.7037V22.7036H27.5464C28.3413 22.7028 29.1033 22.3863 29.6648 21.8237C30.2264 21.2612 30.5415 20.4986 30.5408 19.7037ZM22.5566 19.7037V11.7035C22.5573 10.9086 22.2422 10.1461 21.6807 9.58348C21.1191 9.0209 20.3571 8.70441 19.5622 8.70361C17.9087 8.70361 16.5684 10.0469 16.5684 11.7035V19.7032C16.5684 21.3608 17.9087 22.7041 19.5622 22.7041C20.3571 22.7033 21.1191 22.3868 21.6807 21.8242C22.2422 21.2617 22.5573 20.4991 22.5566 19.7042" fill="#6E7175"/>
<path d="M19.5622 38.7036C20.3571 38.7028 21.1191 38.3863 21.6807 37.8237C22.2422 37.2612 22.5573 36.4986 22.5566 35.7037C22.5573 34.9088 22.2422 34.1463 21.6807 33.5837C21.1191 33.0211 20.3571 32.7046 19.5622 32.7038H16.5684V35.7037C16.5684 37.3603 17.9087 38.7036 19.5622 38.7036ZM19.5622 30.7039H27.5469C29.2 30.7039 30.5408 29.3606 30.5408 27.7035C30.5415 26.9086 30.2264 26.1461 29.6648 25.5835C29.1033 25.0209 28.3413 24.7044 27.5464 24.7036H19.5622C17.9087 24.7036 16.5684 26.0469 16.5684 27.7035C16.568 28.0971 16.6451 28.4868 16.7953 28.8506C16.9456 29.2143 17.166 29.5449 17.444 29.8235C17.722 30.1021 18.0522 30.3231 18.4156 30.4741C18.7791 30.6251 19.1687 30.703 19.5622 30.7034" fill="#6E7175"/>
<path d="M0.599611 27.7035C0.599216 28.0971 0.676341 28.4868 0.826584 28.8506C0.976826 29.2143 1.19724 29.5449 1.47525 29.8235C1.75326 30.1021 2.08341 30.3231 2.44686 30.4741C2.81031 30.6251 3.19993 30.703 3.59349 30.7034C4.38836 30.7026 5.15036 30.3861 5.7119 29.8235C6.27344 29.261 6.58853 28.4984 6.58787 27.7035V24.7036H3.59349C1.93991 24.7036 0.599611 26.0469 0.599611 27.7035ZM8.58378 27.7035V35.7032C8.58378 37.3603 9.92409 38.7036 11.5777 38.7036C12.3725 38.7028 13.1345 38.3863 13.6961 37.8237C14.2576 37.2612 14.5727 36.4986 14.572 35.7037V27.7035C14.5724 27.3099 14.4953 26.9201 14.345 26.5563C14.1947 26.1925 13.9743 25.8619 13.6962 25.5833C13.4182 25.3048 13.0879 25.0837 12.7244 24.9327C12.3609 24.7818 11.9713 24.7039 11.5777 24.7036C9.92409 24.7036 8.58378 26.0469 8.58378 27.7035Z" fill="#6E7175"/>
</g>
<defs>
<clipPath id="clip0_610_36916">
<rect width="121" height="48" fill="white" transform="translate(0.599609)"/>
</clipPath>
</defs>
</svg>
