<svg width="199" height="32" viewBox="0 0 199 32" fill="none" xmlns="http://www.w3.org/2000/svg">
<path fill-rule="evenodd" clip-rule="evenodd" d="M24.2331 30.3715C21.6121 28.7583 19.6803 23.1916 19.6803 16.5761C19.6803 16.3334 19.6813 16.0937 19.6876 15.8551L19.6897 15.8581C12.3981 14.7325 7.13013 11.6486 6.9946 8.00025L6.97375 8.04327C5.18996 10.2218 4.17139 12.7404 4.17139 15.4239C4.17139 23.3207 12.9944 29.7907 24.1862 30.3633L24.2331 30.3715ZM0.799805 15.9995C0.799805 7.16448 11.9926 0 25.799 0C39.6064 0 50.7992 7.16448 50.7992 15.9995C50.7992 24.8355 39.6064 32 25.799 32C11.9926 32 0.799805 24.8355 0.799805 15.9995ZM25.8 2.30861C28.4658 2.30861 30.7333 6.2816 31.5736 11.8247L31.5757 11.8155C36.7624 11.0228 40.3925 9.19348 40.3925 7.06411C40.3925 4.20753 33.8589 1.8938 25.8 1.8938C17.7422 1.8938 11.2086 4.20753 11.2086 7.06411C11.2086 9.19348 14.8387 11.0217 20.0243 11.8155L20.0274 11.8247C20.8677 6.2816 23.1353 2.30861 25.8 2.30861ZM27.4139 30.3623C38.6056 29.7897 47.4297 23.3197 47.4297 15.4228C47.4297 12.7394 46.4101 10.2208 44.6273 8.04225L44.6054 7.99923C44.4709 11.6475 39.203 14.7315 31.9104 15.8571L31.9135 15.854C31.9187 16.0927 31.9208 16.3324 31.9208 16.5751C31.9208 23.1906 29.9879 28.7573 27.368 30.3704L27.4139 30.3623ZM25.8 12.2354C26.9571 12.2368 28.1137 12.1883 29.2665 12.09L29.2654 12.091C28.7129 8.53899 27.3701 6.03066 25.8011 6.03066C24.232 6.03066 22.8903 8.53899 22.3367 12.091L22.3356 12.09C23.4877 12.1878 24.6436 12.2363 25.8 12.2354ZM25.8 25.3927C27.8069 25.3927 29.4447 21.2896 29.5313 16.1449L29.5417 16.148C27.0529 16.3733 24.5482 16.3733 22.0594 16.148L22.0698 16.1449C22.1563 21.2896 23.7931 25.3927 25.8 25.3927ZM128.368 15.9995C128.368 9.24674 133.941 3.77121 140.815 3.77121C147.691 3.77121 153.264 9.24674 153.264 15.9995C153.264 22.7543 147.69 28.2278 140.815 28.2278C133.941 28.2278 128.368 22.7543 128.368 15.9995ZM140.815 23.7437C144.653 23.7437 147.766 20.2756 147.766 15.9985C147.766 11.7223 144.653 8.25426 140.815 8.25426C136.976 8.25426 133.865 11.7223 133.865 15.9985C133.865 20.2767 136.977 23.7437 140.815 23.7437ZM167.388 8.86573V27.6726H162.142V8.86573H162.161H154.826V4.61415H174.703V8.86573H167.388ZM181.048 22.4849L181.044 22.49L179.032 27.6737H172.905L182.589 4.61415H189.118L198.8 27.6737H192.675L190.663 22.49L190.657 22.4849H181.048ZM185.853 18.5928H189.154L189.152 18.5939L185.875 10.1542H185.831L182.554 18.5939L182.552 18.5928H185.853ZM70.7097 8.86573V27.6726H65.4647V8.86573H65.4834H58.1481V4.61415H78.0263V8.86573H70.7097ZM79.368 15.9995C79.368 9.24674 84.9415 3.77121 91.817 3.77121C98.6916 3.77121 104.265 9.24674 104.265 15.9995C104.265 22.7543 98.6916 28.2278 91.817 28.2278C84.9415 28.2278 79.368 22.7543 79.368 15.9995ZM91.817 23.7437C95.6547 23.7437 98.7677 20.2756 98.7677 15.9985C98.7677 11.7223 95.6547 8.25426 91.817 8.25426C87.9784 8.25426 84.8664 11.7223 84.8664 15.9985C84.8664 20.2767 87.9784 23.7437 91.817 23.7437ZM116.315 27.6726H118.974V18.9175L128.125 4.61415H122L116.315 14.3064L110.632 4.61415H104.507L113.656 18.9175V27.6726H116.315Z" fill="#6E7175"/>
</svg>
