<svg width="117" height="48" viewBox="0 0 117 48" fill="none" xmlns="http://www.w3.org/2000/svg">
<g clip-path="url(#clip0_610_36931)">
<path d="M37.4466 21.4076C37.4466 19.346 35.385 17.1469 31.949 17.1469C28.1007 17.1469 23.7026 20.0332 23.0154 25.8057C22.3282 31.5782 25.9016 34.1896 29.6125 34.1896C33.3234 34.1896 35.1101 32.8152 37.0343 30.891C35.385 28.8294 33.186 29.7915 32.7737 29.9289C32.3613 30.2038 31.6741 30.4787 30.5746 30.4787C29.2002 30.4787 27.6883 29.7915 27.6883 27.1801C36.7594 26.218 37.4466 23.4692 37.4466 21.4076ZM33.0485 21.6825C33.0485 22.3697 32.7737 23.4692 28.2381 24.019C29.2002 20.5829 30.9869 20.3081 31.8116 20.3081C32.6362 20.4455 33.0485 20.9953 33.0485 21.6825ZM17.7926 22.2322C17.7926 22.2322 15.8684 28.2796 15.731 28.8294C15.731 28.2796 14.2192 17.4218 14.2192 17.4218C10.9206 17.4218 9.13384 19.7583 8.3092 22.2322C8.3092 22.2322 5.97271 28.2796 5.83527 28.8294C5.69783 28.4171 5.42294 22.3697 5.42294 22.3697C5.14806 19.346 2.39925 17.4218 0.200195 17.4218L2.94901 33.9147C6.38503 33.9147 8.3092 31.5782 9.27129 29.1043C9.27129 29.1043 11.3329 23.7441 11.4703 23.4692C11.4703 23.7441 12.9822 33.9147 12.9822 33.9147C16.4182 33.9147 18.3424 31.7156 19.3045 29.3791L24.1149 17.4218C20.5414 17.4218 18.7547 19.7583 17.7926 22.2322ZM50.2286 17.0095C48.167 17.0095 46.5177 18.109 45.1433 19.8957L46.2428 10C43.3566 10 41.1575 12.4739 40.6078 16.0474L38.4087 33.7772C40.058 33.7772 41.7073 33.3649 42.6694 32.128C43.494 33.2275 44.731 34.0521 46.5177 34.0521C51.3282 34.0521 54.6267 28.5545 54.6267 23.3318C54.7642 18.5213 52.4277 17.0095 50.2286 17.0095ZM49.6789 25.5308C49.1291 28.4171 47.6173 30.3412 45.968 30.3412C44.4561 30.3412 43.7689 29.654 43.7689 29.654C44.0438 27.1801 44.3187 25.5308 44.8684 24.1564C45.4182 22.782 46.7926 20.7204 48.167 20.7204C49.5414 20.8578 50.2286 22.6446 49.6789 25.5308ZM66.7215 17.4218H63.4229V17.2844C63.6978 15.0853 64.1101 13.9858 65.8969 13.8483C66.9964 13.7109 67.5462 13.1611 67.6836 12.4739C67.821 11.9242 68.0959 10.1374 68.0959 10.1374C61.3613 10.1374 59.2997 13.0237 58.75 17.4218V17.5592H58.6125C57.513 17.5592 56.276 18.7962 56.1386 20.3081L56.0011 20.8578H58.2002L56.276 36.2512L55.7263 39C55.8637 39 55.8637 39 56.0011 39C59.1623 38.8626 61.0864 36.3886 61.6362 32.8152L63.1481 20.7204H64.2476C65.2097 20.7204 66.4466 19.7583 66.7215 17.9716V17.4218ZM84.0391 17.1469C80.1907 17.1469 76.6172 20.0332 75.5177 24.4313C74.4182 28.8294 76.0675 34.1896 81.7026 34.1896C87.3376 34.1896 90.6362 28.6919 90.6362 24.1564C90.4988 19.6209 87.4751 17.1469 84.0391 17.1469ZM85.5509 25.3934C85.4135 27.455 84.4514 30.4787 81.9774 30.4787C79.5035 30.4787 79.9158 26.9052 80.0533 25.2559C80.3282 23.4692 81.2902 20.8578 83.4893 20.8578C85.5509 20.8578 85.8258 23.1943 85.5509 25.3934ZM109.603 22.2322C109.603 22.2322 107.679 28.2796 107.541 28.8294C107.541 28.2796 106.03 17.4218 106.03 17.4218C102.731 17.4218 100.944 19.7583 100.12 22.2322C100.12 22.2322 97.7831 28.2796 97.6457 28.8294C97.6457 28.4171 97.2334 22.3697 97.2334 22.3697C97.0959 19.346 94.2097 17.5592 92.0106 17.5592L94.7594 34.0521C98.1955 34.0521 100.12 31.7156 101.082 29.2417C101.082 29.2417 103.143 23.8815 103.281 23.6066C103.281 23.8815 104.793 34.0521 104.793 34.0521C108.229 34.0521 110.153 31.8531 111.115 29.5166L115.65 17.4218C112.214 17.4218 110.428 19.7583 109.603 22.2322ZM69.8827 10.1374L67.1338 32.6777L66.5841 35.4265C66.7215 35.4265 66.7215 35.4265 66.859 35.4265C69.8827 35.4265 72.0817 32.6777 72.3566 29.3791L74.0059 16.4597C74.4182 12.6114 71.9443 10.1374 69.8827 10.1374Z" fill="#6E7175"/>
</g>
<defs>
<clipPath id="clip0_610_36931">
<rect width="116" height="48" fill="white" transform="translate(0.200195)"/>
</clipPath>
</defs>
</svg>
