<svg width="63" height="25" viewBox="0 0 63 25" fill="none" xmlns="http://www.w3.org/2000/svg">
<path d="M10.048 25V6.216H0.64V1.96H23.68V6.216H14.304V25H10.048ZM28.6105 25C27.7998 25 27.0638 24.7973 26.4025 24.392C25.7412 23.9867 25.2078 23.4533 24.8025 22.792C24.3972 22.1307 24.1945 21.3947 24.1945 20.584V10.856C24.1945 10.0453 24.3972 9.30933 24.8025 8.648C25.2078 7.98667 25.7412 7.45333 26.4025 7.048C27.0638 6.64267 27.7998 6.44 28.6105 6.44H38.6265C39.4372 6.44 40.1732 6.64267 40.8345 7.048C41.5172 7.45333 42.0505 7.98667 42.4345 8.648C42.8398 9.30933 43.0425 10.0453 43.0425 10.856V20.584C43.0425 21.3947 42.8398 22.1307 42.4345 22.792C42.0505 23.4533 41.5278 23.9867 40.8665 24.392C40.2052 24.7973 39.4585 25 38.6265 25H28.6105ZM28.7705 20.808H38.4665C38.5732 20.808 38.6585 20.776 38.7225 20.712C38.8078 20.6267 38.8505 20.5307 38.8505 20.424V11.016C38.8505 10.9093 38.8078 10.824 38.7225 10.76C38.6585 10.6747 38.5732 10.632 38.4665 10.632H28.7705C28.6638 10.632 28.5678 10.6747 28.4825 10.76C28.4185 10.824 28.3865 10.9093 28.3865 11.016V20.424C28.3865 20.5307 28.4185 20.6267 28.4825 20.712C28.5678 20.776 28.6638 20.808 28.7705 20.808ZM46.3828 25V6.44H50.5748V25H46.3828ZM46.3828 4.584V0.359999H50.5748V4.584H46.3828ZM58.5488 25C57.7381 25 57.0021 24.7973 56.3408 24.392C55.6794 23.9867 55.1461 23.4533 54.7408 22.792C54.3354 22.1307 54.1328 21.3947 54.1328 20.584V0.327999H58.3568V20.424C58.3568 20.5307 58.3888 20.6267 58.4528 20.712C58.5381 20.776 58.6341 20.808 58.7408 20.808H62.2928V25H58.5488Z" fill="#2DA5F3"/>
</svg>
