<svg width="63" height="63" viewBox="0 0 63 63" fill="none" xmlns="http://www.w3.org/2000/svg">
<path d="M52.5 15.75H60.375V21H57.75V49.875H60.375V55.125H2.625V49.875H5.25V21H2.625V15.75H10.5V10.5C10.5 9.80381 10.7766 9.13613 11.2688 8.64384C11.7611 8.15156 12.4288 7.875 13.125 7.875H49.875C50.5712 7.875 51.2389 8.15156 51.7312 8.64384C52.2234 9.13613 52.5 9.80381 52.5 10.5V15.75ZM52.5 21H10.5V49.875H18.375V31.5H23.625V49.875H28.875V31.5H34.125V49.875H39.375V31.5H44.625V49.875H52.5V21ZM15.75 13.125V15.75H47.25V13.125H15.75Z" fill="#2DA5F3"/>
</svg>
