<svg width="55" height="55" viewBox="0 0 55 55" fill="none" xmlns="http://www.w3.org/2000/svg">
<g clip-path="url(#clip0_612_35727)">
<path d="M50.875 13.0625L41.9375 4.12497C41.7336 3.9027 41.4857 3.72523 41.2095 3.60383C40.9334 3.48243 40.635 3.41974 40.3333 3.41974C40.0317 3.41974 39.7333 3.48243 39.4572 3.60383C39.181 3.72523 38.9331 3.9027 38.7292 4.12497L24.5208 18.3333L21.3125 21.5416L18.1042 24.75L14.8958 27.9583L4.125 38.7291C3.69322 39.1523 3.44611 39.7288 3.4375 40.3333V49.2708C3.4375 49.8786 3.67894 50.4615 4.10871 50.8913C4.53848 51.321 5.12138 51.5625 5.72917 51.5625H14.6667C15.2711 51.5539 15.8477 51.3068 16.2708 50.875L27.9583 39.0729L31.2812 35.8646L32.4271 34.7187L35.6354 31.5104L50.875 16.2708C51.0973 16.0669 51.2747 15.819 51.3961 15.5428C51.5175 15.2667 51.5802 14.9683 51.5802 14.6666C51.5802 14.365 51.5175 14.0666 51.3961 13.7905C51.2747 13.5143 51.0973 13.2664 50.875 13.0625ZM13.6354 46.9791H8.02083V41.3646L33.6875 15.6979L39.3021 21.3125L13.6354 46.9791ZM42.5104 18.1041L36.8958 12.4896L40.3333 8.93747L46.0625 14.6666L42.5104 18.1041Z" fill="#2DA5F3"/>
<path d="M10.313 3.4375C8.68344 3.45433 7.09769 3.96713 5.76684 4.90762C4.43599 5.84812 3.4232 7.17168 2.86329 8.7021C2.30338 10.2325 2.22292 11.8972 2.63263 13.4745C3.04234 15.0517 3.92278 16.4668 5.15673 17.5312L13.2921 24.6354L16.5005 21.3125L8.13589 14.0937C7.74778 13.7972 7.43249 13.416 7.21406 12.9791C6.99563 12.5423 6.87983 12.0613 6.87548 11.5729C6.87307 11.1056 6.96293 10.6423 7.13989 10.2097C7.31685 9.77716 7.57744 9.38376 7.90673 9.05208C8.21708 8.72621 8.59039 8.46678 9.00401 8.28951C9.41764 8.11224 9.86296 8.02083 10.313 8.02083H10.5421C11.0019 8.02823 11.4547 8.13438 11.8699 8.33207C12.285 8.52977 12.6528 8.81439 12.9484 9.16667L20.2817 17.6458L23.6046 14.3229L16.5005 6.30208C15.7716 5.45331 14.8776 4.76166 13.873 4.26921C12.8684 3.77675 11.7741 3.49378 10.6567 3.4375H10.313Z" fill="#2DA5F3"/>
<path d="M42.7399 39.9896C43.0332 39.9574 43.33 39.9922 43.6079 40.0914C43.8858 40.1907 44.1375 40.3518 44.3441 40.5625C44.8024 41.0209 44.917 41.8229 44.8024 43.6563C44.7681 44.7688 44.8448 45.8819 45.0316 46.9792C43.2871 46.9225 41.5881 46.4089 40.1045 45.4896C39.3518 44.6363 38.9433 43.5336 38.9587 42.3959V41.9375L39.5316 41.4792L39.9899 40.9063L41.0212 40.1042H42.6253M38.9587 32.8854L31.8545 39.875L34.3753 42.2813C34.3336 43.5108 34.5461 44.7356 34.9996 45.8792C35.4531 47.0227 36.1377 48.0604 37.0107 48.9271C39.6462 51.1042 43.6566 51.5625 46.8649 51.5625C50.0732 51.5625 51.2191 51.2188 51.6774 51.2188C52.1357 51.2188 52.7087 50.5313 52.7087 50.3021C52.7087 50.0729 50.0732 48.8125 49.5003 46.1771C48.9274 43.5417 50.3024 39.875 47.4378 37.2396C46.8154 36.6379 46.0795 36.166 45.273 35.8512C44.4664 35.5365 43.6054 35.3852 42.7399 35.4063H41.3649L38.9587 32.8854Z" fill="#2DA5F3"/>
</g>
<defs>
<clipPath id="clip0_612_35727">
<rect width="55" height="55" fill="white"/>
</clipPath>
</defs>
</svg>
