<svg width="51" height="51" viewBox="0 0 51 51" fill="none" xmlns="http://www.w3.org/2000/svg">
<path d="M48.0615 42.2216L38.1627 5.27213C37.6415 3.38673 35.9426 2.02566 33.9249 2.02566C33.5233 2.02566 33.136 2.07985 32.7663 2.18026L32.7965 2.17388L28.1795 3.41063C27.6615 3.56044 27.2089 3.78676 26.8088 4.08001L26.8216 4.07204C26.0406 2.81776 24.6716 1.99538 23.1081 1.9906H18.3301C17.0726 1.99219 15.9395 2.52769 15.1458 3.38194L15.1426 3.38513C14.3457 2.52929 13.2125 1.99379 11.9551 1.99219H7.17383C4.75452 1.99538 2.7942 3.95569 2.79102 6.37501V44.625C2.7942 47.0443 4.75452 49.0046 7.17383 49.0078H11.9551C13.2125 49.0046 14.3457 48.4707 15.1394 47.6165L15.1426 47.6133C15.9395 48.4707 17.0726 49.0046 18.3301 49.0078H23.1081C25.5274 49.0046 27.4878 47.0443 27.491 44.625V17.7735L34.98 45.7279C35.5011 47.6117 37.1985 48.9712 39.213 48.9743C39.213 48.9743 39.2178 48.9743 39.221 48.9743C39.621 48.9743 40.0083 48.9202 40.3764 48.8182L40.3461 48.8261L44.9648 47.591C46.8486 47.0714 48.2097 45.3725 48.2097 43.3564C48.2097 42.9548 48.1555 42.5643 48.0535 42.1945L48.0615 42.2248V42.2216ZM29.3493 15.4721L37.8121 13.2042L43.7934 35.5279L35.329 37.7942L29.3493 15.4721ZM28.7962 5.72157L33.4117 4.48482C33.5663 4.44179 33.7448 4.41629 33.9297 4.41629C34.8461 4.41629 35.6175 5.03626 35.8486 5.87935L35.8518 5.89369L37.1921 10.8965L28.7277 13.1644L27.4878 8.53454V6.85313C27.7316 6.3001 28.2034 5.88573 28.7819 5.72476L28.7962 5.72157ZM18.3285 4.38282H23.1065C24.2062 4.38441 25.0971 5.27532 25.0987 6.37501V11.5531L16.3363 11.5547V6.37501C16.3379 5.27532 17.2288 4.38441 18.3285 4.38282ZM13.9457 37.0547H5.18005V13.9453L13.9457 13.9437V37.0547ZM16.3363 13.9453L25.0987 13.9437V37.0547H16.3363V13.9453ZM7.17223 4.38282H11.9535C13.0532 4.38441 13.9441 5.27532 13.9457 6.37501V11.5531L5.18005 11.5547V6.37501C5.18164 5.27532 6.07255 4.38441 7.17223 4.38282ZM11.9535 46.6172H7.17223C6.07255 46.6156 5.18164 45.7247 5.18005 44.625V39.4453H13.9457V44.625C13.9441 45.7247 13.0532 46.6156 11.9535 46.6172ZM23.1065 46.6172H18.3285C17.2288 46.6156 16.3379 45.7247 16.3363 44.625V39.4453H25.0987V44.625C25.0971 45.7247 24.2062 46.6156 23.1065 46.6172ZM45.5497 44.3477C45.2884 44.8019 44.8644 45.1366 44.3592 45.2753L44.3449 45.2784L39.7262 46.5136C39.5732 46.555 39.3979 46.5789 39.2178 46.5789C38.3014 46.5789 37.5284 45.9622 37.2925 45.1207L37.2893 45.1063L35.949 40.1019L44.4134 37.8356L45.7537 42.84C45.7968 42.993 45.8207 43.1699 45.8207 43.3516C45.8207 43.7182 45.7203 44.0624 45.5449 44.3557L45.5497 44.3477Z" fill="#2DA5F3"/>
</svg>
