<svg width="71" height="71" viewBox="0 0 71 71" fill="none" xmlns="http://www.w3.org/2000/svg">
<path fill-rule="evenodd" clip-rule="evenodd" d="M57.6875 51.0312H46.5938V44.375H57.6875V51.0312ZM57.6875 39.9375V28.8437H46.5938V17.75H31.0625H26.625H13.3125V28.8437H8.875V44.375H13.3125V55.4687H26.625H31.0625H42.1562H46.5938H62.125V39.9375H57.6875ZM53.25 39.9375V33.2812H46.5938H42.1562V39.9375H46.5938H53.25ZM42.1562 44.375H37.7188H31.0625V51.0312H42.1562V44.375ZM37.7188 33.2812V39.9375H26.625V33.2812H31.0625H37.7188ZM26.625 44.375V51.0312H17.75V44.375H26.625ZM42.1562 22.1875H31.0625V28.8437H42.1562V22.1875ZM13.3125 33.2812V39.9375H22.1875V33.2812H13.3125ZM17.75 28.8437H26.625V22.1875H17.75V28.8437Z" fill="#2DA5F3"/>
</svg>
