<svg width="39" height="63" viewBox="0 0 39 63" fill="none" xmlns="http://www.w3.org/2000/svg">
<path d="M29.25 43.2616C29.25 40.509 30.8149 37.9914 33.2914 36.7605L39 33.9231L21.9375 0H17.0625L0 33.9231L5.70862 36.7605C8.18513 37.9914 9.75 40.509 9.75 43.2616V43.6154H4.875V63H34.125V43.6154H29.25V43.2616ZM7.88775 32.4256L6.53981 31.7568L17.0625 10.836V29.0769H21.9375V10.836L32.4602 31.7544L31.1122 32.4232C26.9563 34.4901 24.375 38.6432 24.375 43.2616V43.6154H14.625V43.2616C14.625 38.6432 12.0437 34.4901 7.88775 32.4256ZM29.25 58.1538H9.75V48.4615H29.25V58.1538Z" fill="#2DA5F3"/>
</svg>
