<svg width="54" height="54" viewBox="0 0 54 54" fill="none" xmlns="http://www.w3.org/2000/svg">
<path d="M31.3959 3.41213L27.5889 23.4191L41.3825 23.4647L22.6057 50.5862L26.4144 28.5761L12.6208 28.5272L31.3959 3.41213ZM31.3976 0.0388184C31.3065 0.0388184 31.2153 0.0421934 31.1259 0.0489434C30.5302 0.0961934 30.1353 0.297006 29.6679 0.610881C29.408 0.783006 29.1701 0.995631 28.9608 1.24032C28.8984 1.31288 28.841 1.38882 28.787 1.46644L9.87521 26.4954C9.12933 27.5198 9.01795 28.8698 9.5917 29.9987C10.1655 31.1276 11.3231 31.8431 12.5938 31.8533L22.3357 31.9241L19.2729 49.9703C18.9826 51.5211 19.8095 53.0668 21.2641 53.6895C21.6978 53.8751 22.1535 53.9646 22.6023 53.9646C23.6638 53.9646 24.5345 53.4684 25.1893 52.5724L44.123 25.4509C44.8689 24.4266 44.9786 23.0749 44.4065 21.9476C43.8328 20.8187 42.6751 20.1032 41.4045 20.0948L31.6625 20.0779L34.6933 4.21201C34.7574 3.95719 34.7895 3.69226 34.7895 3.41888C34.7895 1.59301 33.3365 0.104631 31.5174 0.0455684C31.4769 0.0438809 31.4381 0.0438809 31.3976 0.0438809V0.0388184Z" fill="#2DA5F3"/>
</svg>
