<svg width="49" height="49" viewBox="0 0 49 49" fill="none" xmlns="http://www.w3.org/2000/svg">
<g clip-path="url(#clip0_612_35765)">
<path d="M17.7952 44.4082C16.4526 44.4137 15.1528 43.9355 14.1338 43.0612C13.1148 42.1869 12.4447 40.975 12.246 39.6471L8.69553 16.5681C8.66195 16.3497 8.67601 16.1267 8.73673 15.9144C8.79746 15.702 8.90341 15.5053 9.04732 15.3377C9.19123 15.1701 9.3697 15.0357 9.57047 14.9435C9.77124 14.8514 9.98955 14.8039 10.2104 14.8041H10.8229C10.6543 14.0706 10.6538 13.3086 10.8214 12.575C10.989 11.8413 11.3204 11.1551 11.7907 10.5676C12.3736 9.8775 13.126 9.35089 13.974 9.03947C14.822 8.72806 15.7364 8.64255 16.6274 8.79136C16.862 7.96891 17.3065 7.2216 17.9171 6.62277C18.5278 6.02394 19.2836 5.59417 20.1105 5.37565C20.9469 5.16071 21.823 5.15306 22.663 5.35336C23.503 5.55367 24.2815 5.95588 24.9309 6.52511C25.5463 5.77883 26.3566 5.21788 27.2718 4.90465C28.1869 4.59143 29.171 4.5382 30.1147 4.7509C30.9843 4.95034 31.7784 5.39542 32.4024 6.03317C33.0264 6.67092 33.454 7.4745 33.6345 8.34832C34.6238 8.42378 35.57 8.78448 36.3585 9.38674C37.1471 9.98899 37.744 10.807 38.0772 11.7416C38.42 12.7272 38.4683 13.7914 38.216 14.8041H38.7938C39.0147 14.8039 39.233 14.8514 39.4338 14.9435C39.6345 15.0357 39.813 15.1701 39.9569 15.3377C40.1008 15.5053 40.2068 15.702 40.2675 15.9144C40.3282 16.1267 40.3423 16.3497 40.3087 16.5681L36.7562 39.6389C36.5601 40.969 35.8906 42.1837 34.8708 43.0598C33.851 43.936 32.5494 44.4147 31.2049 44.4082H17.7952ZM31.2049 41.3457C31.8155 41.3489 32.4068 41.1319 32.8703 40.7344C33.3339 40.3369 33.6385 39.7855 33.7284 39.1816L37.0073 17.8666H31.16L30.0922 41.3457H31.2049ZM27.0277 41.3457L28.0934 17.8666H20.9047L21.9725 41.3457H27.0277ZM15.2717 39.1816C15.362 39.7854 15.6668 40.3364 16.1302 40.7339C16.5936 41.1313 17.1847 41.3485 17.7952 41.3457H18.9059L17.8402 17.8666H11.9949L15.2717 39.1816ZM35.0249 14.8041C35.3089 14.1914 35.3773 13.5006 35.2188 12.8441C34.7962 11.7416 33.9816 11.2801 32.4054 11.3639C32.2038 11.3746 32.002 11.3453 31.8117 11.2777C31.6214 11.2102 31.4464 11.1056 31.2967 10.9701C31.1469 10.8347 31.0255 10.6709 30.9393 10.4883C30.8531 10.3057 30.8039 10.1078 30.7945 9.90611C30.7312 8.55657 30.3004 7.95427 29.3756 7.71744C28.4507 7.48061 27.487 8.01552 26.3131 9.65498C26.1784 9.84222 26.0032 9.99667 25.8006 10.1068C25.5979 10.217 25.373 10.28 25.1427 10.2912C24.9123 10.3023 24.6824 10.2614 24.47 10.1714C24.2577 10.0814 24.0683 9.94467 23.9162 9.77136C22.7932 8.48919 21.8418 8.09106 20.9149 8.34219C20.0207 8.58106 19.498 9.29565 19.3061 10.8167C19.2771 11.0397 19.1994 11.2536 19.0785 11.4433C18.9575 11.6329 18.7964 11.7936 18.6064 11.9141C18.4165 12.0345 18.2024 12.1116 17.9792 12.14C17.7561 12.1684 17.5295 12.1474 17.3154 12.0784C15.7536 11.5721 14.8022 11.762 14.11 12.5582C13.9075 12.893 13.7867 13.2708 13.7572 13.6609C13.7278 14.0511 13.7906 14.4427 13.9406 14.8041H35.0249Z" fill="#2DA5F3"/>
</g>
<defs>
<clipPath id="clip0_612_35765">
<rect width="49" height="49" fill="white"/>
</clipPath>
</defs>
</svg>
