<svg width="50" height="50" viewBox="0 0 50 50" fill="none" xmlns="http://www.w3.org/2000/svg">
<path d="M2 29.5C2 20.7791 2 16.4185 4.69461 13.7093C7.38924 11 11.7261 11 20.4 11H29.6C38.2738 11 42.6109 11 45.3053 13.7093C48 16.4185 48 20.7791 48 29.5C48 38.2209 48 42.5816 45.3053 45.2907C42.6109 48 38.2738 48 29.6 48H20.4C11.7261 48 7.38924 48 4.69461 45.2907C2 42.5816 2 38.2209 2 29.5Z" stroke="#2DA5F3" stroke-width="4"/>
<path d="M34 11C34 6.75736 34 4.63603 32.6819 3.31803C31.3639 2 29.2426 2 25 2C20.7574 2 18.636 2 17.318 3.31803C16 4.63603 16 6.75736 16 11" stroke="#2DA5F3" stroke-width="4"/>
<path d="M24.5 37.4166C26.9853 37.4166 29 35.6444 29 33.4584C29 31.2722 26.9853 29.5 24.5 29.5C22.0147 29.5 20 27.7278 20 25.5416C20 23.3556 22.0147 21.5834 24.5 21.5834M24.5 37.4166C22.0147 37.4166 20 35.6444 20 33.4584M24.5 37.4166V39M24.5 21.5834V20M24.5 21.5834C26.9853 21.5834 29 23.3556 29 25.5416" stroke="#2DA5F3" stroke-width="4" stroke-linecap="round"/>
</svg>
