<svg width="63" height="63" viewBox="0 0 63 63" fill="none" xmlns="http://www.w3.org/2000/svg">
<path d="M46.6201 33.5226V40.3067C46.6201 43.6727 45.283 46.9007 42.903 49.2808C40.5229 51.6608 37.2948 52.9979 33.9289 52.9979C30.563 52.9979 27.335 51.6608 24.9549 49.2808C22.5749 46.9007 21.2377 43.6727 21.2377 40.3067V38.8146C18.4178 38.3751 15.8476 36.9424 13.9909 34.7749C12.1341 32.6075 11.1129 29.8479 11.1113 26.9939V17.4079C11.1117 16.4808 11.3433 15.5683 11.785 14.7532C12.2268 13.938 12.8647 13.2458 13.6413 12.7393C13.6965 11.85 14.0468 11.0045 14.6369 10.3369C15.227 9.6692 16.0229 9.21755 16.8987 9.05346C17.7745 8.88937 18.68 9.02224 19.4717 9.43099C20.2635 9.83975 20.8962 10.501 21.2695 11.31C21.6429 12.119 21.7357 13.0295 21.5331 13.8972C21.3305 14.7649 20.8441 15.5402 20.151 16.1001C19.458 16.6601 18.5979 16.9728 17.707 16.9887C16.8161 17.0046 15.9454 16.7227 15.2329 16.1877C14.9443 16.5289 14.7858 16.9611 14.7852 17.4079V26.9905C14.7852 29.189 15.6586 31.2975 17.2132 32.8521C18.7677 34.4067 20.8762 35.28 23.0747 35.28C25.2732 35.28 27.3817 34.4067 28.9362 32.8521C30.4908 31.2975 31.3642 29.189 31.3642 26.9905V17.4079C31.3643 17.0103 31.239 16.6227 31.0061 16.3004C30.2668 16.7984 29.3826 17.0356 28.4934 16.9744C27.6042 16.9132 26.7607 16.5572 26.0966 15.9627C25.4326 15.3682 24.9857 14.5692 24.8269 13.6921C24.6681 12.8151 24.8063 11.9101 25.2197 11.1205C25.6332 10.3308 26.2982 9.70164 27.1095 9.33252C27.9208 8.9634 28.832 8.87543 29.6989 9.08253C30.5659 9.28963 31.339 9.77997 31.8958 10.4759C32.4527 11.1719 32.7615 12.0337 32.7734 12.925C33.4753 13.4429 34.0459 14.1183 34.4393 14.8969C34.8326 15.6755 35.0377 16.5356 35.0381 17.4079V26.9905C35.0365 29.8446 34.0153 32.6041 32.1585 34.7716C30.3017 36.9391 27.7316 38.3718 24.9116 38.8113V40.3034C24.9116 42.6945 25.8615 44.9877 27.5523 46.6784C29.243 48.3692 31.5362 49.3191 33.9273 49.3191C36.3184 49.3191 38.6115 48.3692 40.3023 46.6784C41.993 44.9877 42.9429 42.6945 42.9429 40.3034V33.5226C41.2765 33.0769 39.829 32.0405 38.8702 30.6065C37.9114 29.1726 37.5066 27.4389 37.7314 25.7286C37.9562 24.0184 38.7952 22.4482 40.0919 21.3107C41.3887 20.1732 43.0549 19.546 44.7799 19.546C46.5048 19.546 48.171 20.1732 49.4678 21.3107C50.7645 22.4482 51.6035 24.0184 51.8283 25.7286C52.0531 27.4389 51.6483 29.1726 50.6895 30.6065C49.7307 32.0405 48.2832 33.0769 46.6168 33.5226H46.6201ZM48.2117 26.659C48.2117 25.9802 48.0104 25.3167 47.6333 24.7523C47.2562 24.188 46.7202 23.7481 46.0932 23.4884C45.4661 23.2286 44.776 23.1606 44.1103 23.2931C43.4446 23.4255 42.8331 23.7523 42.3532 24.2323C41.8732 24.7122 41.5464 25.3237 41.414 25.9894C41.2815 26.6552 41.3495 27.3452 41.6092 27.9723C41.869 28.5994 42.3089 29.1353 42.8732 29.5124C43.4376 29.8895 44.1011 30.0908 44.7799 30.0908C45.6901 30.0899 46.5628 29.7282 47.2067 29.0849C47.8507 28.4416 48.2133 27.5692 48.215 26.659H48.2117Z" fill="#2DA5F3"/>
</svg>
