<svg width="53" height="53" viewBox="0 0 53 53" fill="none" xmlns="http://www.w3.org/2000/svg">
<g clip-path="url(#clip0_612_35745)">
<path d="M50.7913 27.6042L41.958 6.29375C37.0373 4.34119 31.7936 3.32992 26.4997 3.3125C21.2057 3.32992 15.9621 4.34119 11.0413 6.29375L2.20801 27.6042V29.8125C2.20801 32.1552 3.13866 34.402 4.79523 36.0586C6.4518 37.7152 8.6986 38.6458 11.0413 38.6458C13.3841 38.6458 15.6309 37.7152 17.2875 36.0586C18.944 34.402 19.8747 32.1552 19.8747 29.8125V27.6042L12.808 11.0417L13.1393 10.1583C16.7185 8.82763 20.4783 8.04587 24.2913 7.83958V45.2708H16.5622C15.9765 45.2708 15.4148 45.5035 15.0006 45.9176C14.5865 46.3318 14.3538 46.8935 14.3538 47.4792C14.3538 48.0648 14.5865 48.6266 15.0006 49.0407C15.4148 49.4548 15.9765 49.6875 16.5622 49.6875H36.4372C37.0229 49.6875 37.5846 49.4548 37.9987 49.0407C38.4128 48.6266 38.6455 48.0648 38.6455 47.4792C38.6455 46.8935 38.4128 46.3318 37.9987 45.9176C37.5846 45.5035 37.0229 45.2708 36.4372 45.2708H28.708V7.83958C32.521 8.04587 36.2809 8.82763 39.8601 10.1583L40.1913 11.0417L33.1247 27.6042V29.8125C33.1247 32.1552 34.0553 34.402 35.7119 36.0586C37.3685 37.7152 39.6153 38.6458 41.958 38.6458C44.3008 38.6458 46.5475 37.7152 48.2041 36.0586C49.8607 34.402 50.7913 32.1552 50.7913 29.8125V27.6042ZM11.0413 34.2292C10.2593 34.2362 9.48951 34.0354 8.81052 33.6474C8.13154 33.2594 7.56774 32.6981 7.17676 32.0208H14.9059C14.5149 32.6981 13.9511 33.2594 13.2722 33.6474C12.5932 34.0354 11.8233 34.2362 11.0413 34.2292ZM15.6788 27.6042H5.74134L11.0413 15.7896L15.6788 27.6042ZM41.958 15.7896L46.5955 27.6042H36.658L41.958 15.7896ZM41.958 34.2292C41.176 34.2362 40.4062 34.0354 39.7272 33.6474C39.0482 33.2594 38.4844 32.6981 38.0934 32.0208H45.8226C45.4316 32.6981 44.8678 33.2594 44.1888 33.6474C43.5098 34.0354 42.74 34.2362 41.958 34.2292Z" fill="#2DA5F3"/>
</g>
<defs>
<clipPath id="clip0_612_35745">
<rect width="53" height="53" fill="white"/>
</clipPath>
</defs>
</svg>
