<svg width="57" height="57" viewBox="0 0 57 57" fill="none" xmlns="http://www.w3.org/2000/svg">
<path d="M54.4091 0H44.0455C43.3583 0 42.6993 0.27297 42.2134 0.75886C41.7275 1.24475 41.4545 1.90376 41.4545 2.59091V20.7273H36.2727V15.5455C36.2729 15.1038 36.1602 14.6694 35.9453 14.2835C35.7304 13.8976 35.4204 13.5731 35.0447 13.3408C34.6691 13.1084 34.2403 12.976 33.799 12.956C33.3578 12.936 32.9188 13.0292 32.5237 13.2266L20.7273 19.1261V15.5455C20.7275 15.1038 20.6148 14.6694 20.3998 14.2835C20.1849 13.8976 19.8749 13.5731 19.4993 13.3408C19.1236 13.1084 18.6948 12.976 18.2536 12.956C17.8123 12.936 17.3733 13.0292 16.9782 13.2266L1.43277 20.9993C1.00208 21.2145 0.639874 21.5455 0.386795 21.9551C0.133717 22.3647 -0.00022408 22.8367 2.81404e-07 23.3182V54.4091C2.81404e-07 55.0962 0.27297 55.7553 0.75886 56.2411C1.24475 56.727 1.90376 57 2.59091 57H54.4091C55.0962 57 55.7553 56.727 56.2411 56.2411C56.727 55.7553 57 55.0962 57 54.4091V2.59091C57 1.90376 56.727 1.24475 56.2411 0.75886C55.7553 0.27297 55.0962 0 54.4091 0ZM51.8182 5.18182V10.3636H46.6364V5.18182H51.8182ZM5.18182 51.8182V24.9194L15.5455 19.7375V23.3182C15.5452 23.7599 15.658 24.1943 15.8729 24.5801C16.0878 24.966 16.3978 25.2905 16.7735 25.5229C17.1491 25.7552 17.5779 25.8877 18.0191 25.9076C18.4604 25.9276 18.8994 25.8345 19.2945 25.637L31.0909 19.7375V23.3182C31.0909 24.0053 31.3639 24.6643 31.8498 25.1502C32.3357 25.6361 32.9947 25.9091 33.6818 25.9091H44.0455C44.7326 25.9091 45.3916 25.6361 45.8775 25.1502C46.3634 24.6643 46.6364 24.0053 46.6364 23.3182V15.5455H51.8182V51.8182H5.18182ZM10.3636 31.0909H18.1364V36.2727H10.3636V31.0909ZM23.3182 31.0909H33.6818V36.2727H23.3182V31.0909ZM38.8636 31.0909H46.6364V36.2727H38.8636V31.0909ZM10.3636 41.4545H18.1364V46.6364H10.3636V41.4545ZM23.3182 41.4545H33.6818V46.6364H23.3182V41.4545ZM38.8636 41.4545H46.6364V46.6364H38.8636V41.4545Z" fill="#2DA5F3"/>
</svg>
