<svg width="48" height="48" viewBox="0 0 48 48" fill="none" xmlns="http://www.w3.org/2000/svg">
<g clip-path="url(#clip0_612_35740)">
<path fill-rule="evenodd" clip-rule="evenodd" d="M21.6 21.6H40.8C42.1248 21.6 43.2 22.6752 43.2 24C43.2 25.3248 42.1248 26.4 40.8 26.4H21.6C20.2752 26.4 19.2 25.3248 19.2 24C19.2 22.6752 20.2752 21.6 21.6 21.6ZM21.6 38.4H40.8C42.1248 38.4 43.2 39.4752 43.2 40.8C43.2 42.1248 42.1248 43.2 40.8 43.2H21.6C20.2752 43.2 19.2 42.1248 19.2 40.8C19.2 39.4752 20.2752 38.4 21.6 38.4ZM21.6 4.8H40.8C42.1248 4.8 43.2 5.8752 43.2 7.2C43.2 8.5248 42.1248 9.6 40.8 9.6H21.6C20.2752 9.6 19.2 8.5248 19.2 7.2C19.2 5.8752 20.2752 4.8 21.6 4.8ZM14.4 9.6C14.4 12.252 16.548 14.4 19.2 14.4H43.2C45.852 14.4 48 12.252 48 9.6V4.8C48 2.148 45.852 0 43.2 0H19.2C16.548 0 14.4 2.148 14.4 4.8H4.8V0H0V38.3977C0 41.0497 2.15042 43.2 4.80242 43.2H5.32559H14.4C14.4 45.852 16.548 48 19.2 48H43.2C45.852 48 48 45.852 48 43.2V38.4C48 35.748 45.852 33.6 43.2 33.6H19.2C16.548 33.6 14.4 35.748 14.4 38.4H7.19041C5.87041 38.4 4.8 37.3294 4.8 36.0094V26.4H14.4C14.4 29.052 16.548 31.2 19.2 31.2H43.2C45.852 31.2 48 29.052 48 26.4V21.6C48 18.948 45.852 16.8 43.2 16.8H19.2C16.548 16.8 14.4 18.948 14.4 21.6H4.8V9.6H14.4Z" fill="#2DA5F3"/>
</g>
<defs>
<clipPath id="clip0_612_35740">
<rect width="48" height="48" fill="white"/>
</clipPath>
</defs>
</svg>
