<svg width="42" height="42" viewBox="0 0 42 42" fill="none" xmlns="http://www.w3.org/2000/svg">
<path fill-rule="evenodd" clip-rule="evenodd" d="M37.1704 4.20002H30.1354C30.631 7.58944 31.0657 12.2178 30.3349 15.0297C30.7948 15.0675 31.2757 15.099 31.8238 15.099C34.7092 15.099 36.8092 14.4837 37.54 14.07C38.0125 12.6357 37.834 8.50085 37.1704 4.20002ZM33.6004 19.2257C31.2232 19.4042 28.5478 19.2615 26.3449 18.5202C22.9765 19.5282 18.2577 19.5912 15.072 18.5181C13.2765 19.0578 10.9686 19.3725 8.40028 19.2759V37.8002H18.9003V29.4002H23.1004V37.8002H33.6004V19.2257ZM4.49636 14.2904C5.05706 14.6033 6.68247 15.099 9.27808 15.099C10.1412 15.099 10.9245 15.0405 11.6322 14.9523C10.9833 12.0879 11.3592 7.53904 11.7981 4.20002H4.74626C4.13936 8.62055 4.00915 12.8624 4.49636 14.2904ZM15.7734 14.2904C17.9091 15.4811 24.1231 15.2859 26.2714 14.07C26.7439 12.6357 26.5654 8.50085 25.9018 4.20002H16.0233C15.4164 8.62055 15.2862 12.8624 15.7734 14.2904ZM40.6691 16.9406C40.0349 17.5748 39.0184 18.079 37.8004 18.4633V42.0002H4.20026V18.6504C2.87725 18.2619 1.79784 17.6987 1.18254 16.9406C-1.47817 13.6457 1.18254 0 1.18254 0H40.6691C40.6691 0 43.6637 13.946 40.6691 16.9406ZM12.6003 29.4002H16.8003V21.0001H12.6003V29.4002ZM25.2004 29.4002H29.4004V21.0001H25.2004V29.4002Z" fill="#2DA5F3"/>
</svg>
