<svg width="50" height="50" viewBox="0 0 50 50" fill="none" xmlns="http://www.w3.org/2000/svg">
<g clip-path="url(#clip0_612_35757)">
<path d="M23.5371 4.57363C24.3623 4.26414 25.2614 4.22545 26.1051 4.45757L26.4629 4.57363L41.0462 10.0424C42.5643 10.6116 43.6039 12.0038 43.7358 13.599L43.75 13.9438V25.1161C43.75 32.0093 39.9701 38.328 33.9396 41.5979L33.3852 41.8867L26.3975 45.3804C25.6155 45.7715 24.7105 45.815 23.9011 45.5108L23.6025 45.3804L16.6147 41.8867C10.4494 38.8039 6.48806 32.5972 6.26037 25.7411L6.25 25.1161V13.9438C6.25 12.3227 7.18853 10.8603 8.63587 10.1767L8.95365 10.0424L23.5371 4.57363ZM25 8.47501L10.4167 13.9438V25.1161C10.4167 30.4557 13.3329 35.3524 17.9902 37.9043L18.4781 38.1598L25 41.4209L31.5219 38.1598C36.2978 35.7719 39.3733 30.9736 39.573 25.6668L39.5833 25.1161V13.9438L25 8.47501ZM32.1519 17.9773C32.9656 17.1637 34.2846 17.1637 35.0981 17.9773C35.8493 18.7283 35.9071 19.91 35.2715 20.7273L35.0981 20.9236L24.1931 31.8288C23.3621 32.6598 22.0515 32.7192 21.152 32.0069L20.9521 31.8288L15.9434 26.82C15.1299 26.0065 15.1299 24.6873 15.9434 23.8738C16.6945 23.1228 17.8762 23.065 18.6935 23.7005L18.8897 23.8738L22.5725 27.5567L32.1519 17.9773Z" fill="#2DA5F3"/>
</g>
<defs>
<clipPath id="clip0_612_35757">
<rect width="50" height="50" fill="white"/>
</clipPath>
</defs>
</svg>
