<svg width="70" height="70" viewBox="0 0 70 70" fill="none" xmlns="http://www.w3.org/2000/svg">
<path d="M32.4013 42.4258C32.0833 43.0497 32.0833 43.8664 32.0833 45.5V50.75C32.0833 52.3836 32.0833 53.2003 32.4013 53.8242C32.681 54.3731 33.1269 54.8191 33.6758 55.0988C34.2997 55.4167 35.1164 55.4167 36.75 55.4167H42C43.6336 55.4167 44.4503 55.4167 45.0742 55.0988C45.6231 54.8191 46.069 54.3731 46.3488 53.8242C46.6667 53.2003 46.6667 52.3836 46.6667 50.75V45.5C46.6667 43.8664 46.6667 43.0497 46.3488 42.4258C46.069 41.8769 45.6231 41.431 45.0742 41.1513C44.4503 40.8333 43.6336 40.8333 42 40.8333H36.75C35.1164 40.8333 34.2997 40.8333 33.6758 41.1513C33.1269 41.431 32.681 41.8769 32.4013 42.4258ZM32.4013 42.4258L22.5709 28.2163M23.3333 21.875H46.6667M13.4167 29.1667H18.6667C20.3001 29.1667 21.1169 29.1667 21.7408 28.8488C22.2896 28.5691 22.7358 28.1229 23.0154 27.5741C23.3333 26.9502 23.3333 26.1335 23.3333 24.5V19.25C23.3333 17.6165 23.3333 16.7998 23.0154 16.1759C22.7358 15.6271 22.2896 15.1809 21.7408 14.9012C21.1169 14.5833 20.3001 14.5833 18.6667 14.5833H13.4167C11.7832 14.5833 10.9664 14.5833 10.3425 14.9012C9.79373 15.1809 9.34754 15.6271 9.06789 16.1759C8.75 16.7998 8.75 17.6165 8.75 19.25V24.5C8.75 26.1335 8.75 26.9502 9.06789 27.5741C9.34754 28.1229 9.79373 28.5691 10.3425 28.8488C10.9664 29.1667 11.7832 29.1667 13.4167 29.1667ZM51.3333 29.1667H56.5833C58.217 29.1667 59.0336 29.1667 59.6575 28.8488C60.2064 28.5691 60.6524 28.1229 60.9321 27.5741C61.25 26.9502 61.25 26.1335 61.25 24.5V19.25C61.25 17.6165 61.25 16.7998 60.9321 16.1759C60.6524 15.6271 60.2064 15.1809 59.6575 14.9012C59.0336 14.5833 58.217 14.5833 56.5833 14.5833H51.3333C49.6997 14.5833 48.883 14.5833 48.2592 14.9012C47.7102 15.1809 47.2643 15.6271 46.9846 16.1759C46.6667 16.7998 46.6667 17.6165 46.6667 19.25V24.5C46.6667 26.1335 46.6667 26.9502 46.9846 27.5741C47.2643 28.1229 47.7102 28.5691 48.2592 28.8488C48.883 29.1667 49.6997 29.1667 51.3333 29.1667Z" stroke="#2DA5F3" stroke-width="4" stroke-linecap="round" stroke-linejoin="round"/>
</svg>
