<svg width="60" height="60" viewBox="0 0 60 60" fill="none" xmlns="http://www.w3.org/2000/svg">
<path d="M43.125 28.125H46.875V31.875H43.125V28.125ZM56.25 30V41.25H52.5C52.5 44.3569 49.9819 46.875 46.875 46.875C43.7681 46.875 41.25 44.3569 41.25 41.25H37.5C37.5 44.3569 34.9819 46.875 31.875 46.875C28.7681 46.875 26.25 44.3569 26.25 41.25H18.75C18.75 44.3569 16.2319 46.875 13.125 46.875C10.0181 46.875 7.5 44.3569 7.5 41.25H3.75V15H41.25V22.5H48.75L56.25 30ZM15 41.25C15 40.2169 14.1581 39.375 13.125 39.375C12.0919 39.375 11.25 40.2169 11.25 41.25C11.25 42.2831 12.0919 43.125 13.125 43.125C14.1581 43.125 15 42.2831 15 41.25ZM33.75 41.25C33.75 40.2169 32.9081 39.375 31.875 39.375C30.8419 39.375 30 40.2169 30 41.25C30 42.2831 30.8419 43.125 31.875 43.125C32.9081 43.125 33.75 42.2831 33.75 41.25ZM37.5 18.75H7.5V37.5H8.96062C9.99 36.3563 11.4656 35.625 13.125 35.625C14.7844 35.625 16.26 36.3563 17.2894 37.5H27.7087C28.7381 36.3563 30.2138 35.625 31.8731 35.625C33.5325 35.625 35.0081 36.3563 36.0375 37.5H37.5V18.75ZM48.75 41.25C48.75 40.2169 47.9081 39.375 46.875 39.375C45.8419 39.375 45 40.2169 45 41.25C45 42.2831 45.8419 43.125 46.875 43.125C47.9081 43.125 48.75 42.2831 48.75 41.25ZM52.5 31.5525L47.1975 26.25H41.25V37.5H42.7106C43.74 36.3563 45.2156 35.625 46.875 35.625C48.5344 35.625 50.01 36.3563 51.0394 37.5H52.5V31.5525Z" fill="#2DA5F3"/>
</svg>
