<svg width="51" height="51" viewBox="0 0 51 51" fill="none" xmlns="http://www.w3.org/2000/svg">
<path d="M25.5 34C22.566 34 20.1875 36.3785 20.1875 39.3125C20.1875 42.2465 22.566 44.625 25.5 44.625C28.434 44.625 30.8125 42.2465 30.8125 39.3125C30.8125 36.3785 28.434 34 25.5 34ZM25.5 34V25.5M11.6875 17C14.6215 17 17 14.6215 17 11.6875C17 8.75349 14.6215 6.375 11.6875 6.375C8.75349 6.375 6.375 8.75349 6.375 11.6875C6.375 14.6215 8.75349 17 11.6875 17ZM11.6875 17V18.7C11.6875 21.0802 11.6875 22.2704 12.1507 23.1795C12.5582 23.9791 13.2083 24.6294 14.008 25.0367C14.9172 25.5 16.1073 25.5 18.4875 25.5H32.5125C34.8927 25.5 36.0829 25.5 36.992 25.0367C37.7916 24.6294 38.4419 23.9791 38.8492 23.1795C39.3125 22.2704 39.3125 21.0802 39.3125 18.7V17M39.3125 17C42.2465 17 44.625 14.6215 44.625 11.6875C44.625 8.75349 42.2465 6.375 39.3125 6.375C36.3785 6.375 34 8.75349 34 11.6875C34 14.6215 36.3785 17 39.3125 17Z" stroke="#2DA5F3" stroke-width="4" stroke-linecap="round" stroke-linejoin="round"/>
</svg>
