<svg width="16" height="16" viewBox="0 0 16 16" fill="none" xmlns="http://www.w3.org/2000/svg">
<g clip-path="url(#clip0_1478_111896)">
<path d="M8.97505 2.72929L8.97482 2.72952L8.3592 3.36389L8.00039 3.73363L7.64157 3.36389L7.02594 2.72952L7.02537 2.72893C5.61839 1.2743 3.3667 1.06833 1.8781 2.33662L8.97505 2.72929ZM8.97505 2.72929C10.3855 1.27401 12.6343 1.0685 14.1227 2.33662C15.8626 3.82161 15.9559 6.49385 14.3944 8.10523L14.3943 8.10534M8.97505 2.72929L14.3943 8.10534M14.3943 8.10534L8.34757 14.349C8.1534 14.5494 7.84425 14.5494 7.65007 14.349L1.60352 8.10555M14.3943 8.10534L1.60352 8.10555M1.60352 8.10555L1.60331 8.10534C0.0448328 6.49393 0.138253 3.82168 1.87802 2.3367L1.60352 8.10555Z" stroke="#2DA5F3"/>
</g>
<defs>
<clipPath id="clip0_1478_111896">
<rect width="16" height="16" fill="white"/>
</clipPath>
</defs>
</svg>
