<svg width="14" height="14" viewBox="0 0 14 14" fill="none" xmlns="http://www.w3.org/2000/svg">
<path d="M7.27549 11.3563L10.4255 13.3563C10.8317 13.6125 11.3317 13.2313 11.213 12.7625L10.3005 9.17502C10.2758 9.07557 10.2797 8.97119 10.3118 8.87388C10.3439 8.77657 10.4028 8.6903 10.4817 8.62502L13.3067 6.26877C13.6755 5.96252 13.488 5.34377 13.0067 5.31252L9.31924 5.07502C9.21862 5.06916 9.12189 5.03413 9.04087 4.97419C8.95984 4.91425 8.89803 4.83201 8.86299 4.73752L7.48799 1.27502C7.45159 1.17495 7.38528 1.08852 7.29807 1.02744C7.21086 0.966358 7.10696 0.933594 7.00049 0.933594C6.89401 0.933594 6.79012 0.966358 6.7029 1.02744C6.61569 1.08852 6.54938 1.17495 6.51299 1.27502L5.13799 4.73752C5.10294 4.83201 5.04113 4.91425 4.96011 4.97419C4.87908 5.03413 4.78235 5.06916 4.68174 5.07502L0.994236 5.31252C0.512986 5.34377 0.325486 5.96252 0.694236 6.26877L3.51924 8.62502C3.5982 8.6903 3.6571 8.77657 3.68917 8.87388C3.72124 8.97119 3.72516 9.07557 3.70049 9.17502L2.85674 12.5C2.71299 13.0625 3.31299 13.5188 3.79424 13.2125L6.72549 11.3563C6.80768 11.304 6.90308 11.2762 7.00049 11.2762C7.0979 11.2762 7.19329 11.304 7.27549 11.3563Z" fill="#FA8232"/>
</svg>
