<svg width="20" height="20" viewBox="0 0 20 20" fill="none" xmlns="http://www.w3.org/2000/svg">
<path d="M1 9C1 7.11438 1 6.17157 1.58579 5.58579C2.17157 5 3.11438 5 5 5H6H14H15C16.8856 5 17.8284 5 18.4142 5.58579C19 6.17157 19 7.11438 19 9V15C19 16.8856 19 17.8284 18.4142 18.4142C17.8284 19 16.8856 19 15 19H14H6H5C3.11438 19 2.17157 19 1.58579 18.4142C1 17.8284 1 16.8856 1 15V9Z" stroke="white" stroke-width="1.5" stroke-linejoin="round"/>
<path d="M6 19V3C6 1.89543 6.89543 1 8 1H12C13.1046 1 14 1.89543 14 3V19" stroke="white" stroke-width="1.5" stroke-linejoin="round"/>
</svg>
