<svg width="102" height="29" viewBox="0 0 102 29" fill="none" xmlns="http://www.w3.org/2000/svg">
<path d="M44.048 25V6.216H34.64V1.96H57.68V6.216H48.304V25H44.048ZM62.6105 25C61.7998 25 61.0638 24.7973 60.4025 24.392C59.7412 23.9867 59.2078 23.4533 58.8025 22.792C58.3972 22.1307 58.1945 21.3947 58.1945 20.584V10.856C58.1945 10.0453 58.3972 9.30933 58.8025 8.648C59.2078 7.98667 59.7412 7.45333 60.4025 7.048C61.0638 6.64267 61.7998 6.44 62.6105 6.44H72.6265C73.4372 6.44 74.1732 6.64267 74.8345 7.048C75.5172 7.45333 76.0505 7.98667 76.4345 8.648C76.8398 9.30933 77.0425 10.0453 77.0425 10.856V20.584C77.0425 21.3947 76.8398 22.1307 76.4345 22.792C76.0505 23.4533 75.5278 23.9867 74.8665 24.392C74.2052 24.7973 73.4585 25 72.6265 25H62.6105ZM62.7705 20.808H72.4665C72.5732 20.808 72.6585 20.776 72.7225 20.712C72.8078 20.6267 72.8505 20.5307 72.8505 20.424V11.016C72.8505 10.9093 72.8078 10.824 72.7225 10.76C72.6585 10.6747 72.5732 10.632 72.4665 10.632H62.7705C62.6638 10.632 62.5678 10.6747 62.4825 10.76C62.4185 10.824 62.3865 10.9093 62.3865 11.016V20.424C62.3865 20.5307 62.4185 20.6267 62.4825 20.712C62.5678 20.776 62.6638 20.808 62.7705 20.808ZM80.3828 25V6.44H84.5748V25H80.3828ZM80.3828 4.584V0.359999H84.5748V4.584H80.3828ZM92.5488 25C91.7381 25 91.0021 24.7973 90.3408 24.392C89.6794 23.9867 89.1461 23.4533 88.7408 22.792C88.3354 22.1307 88.1328 21.3947 88.1328 20.584V0.327999H92.3568V20.424C92.3568 20.5307 92.3888 20.6267 92.4528 20.712C92.5381 20.776 92.6341 20.808 92.7408 20.808H96.2928V25H92.5488Z" fill="#2DA5F3"/>
<path d="M15.8152 0V6.15468C19.7952 6.78058 22.9373 10.223 22.9373 14.3957C22.9373 18.9856 19.1668 22.741 14.5584 22.741C10.1594 22.741 6.5984 19.4029 6.17946 15.1259H0C0.418946 22.8453 6.70314 29 14.5584 29C22.6231 29 29.1168 22.5324 29.1168 14.5C29.1168 6.88489 23.2515 0.730216 15.8152 0Z" fill="#2DA5F3"/>
<path d="M14.1394 0H0V6.05036H14.1394V0Z" fill="#2DA5F3"/>
<path d="M10.8926 7.61523H0V13.7699H10.8926V7.61523Z" fill="#2DA5F3"/>
</svg>
