<svg width="22" height="22" viewBox="0 0 22 22" fill="none" xmlns="http://www.w3.org/2000/svg">
<path fill-rule="evenodd" clip-rule="evenodd" d="M10.6981 20.6517C5.34953 20.6517 1 16.3345 1 11.026C1 5.71757 5.34953 1.40039 10.6981 1.40039C16.0467 1.40039 20.3975 5.71757 20.3975 11.026C20.3975 16.3345 16.0467 20.6517 10.6981 20.6517ZM10.7188 2.50816C6.03024 2.50816 2.21388 6.32321 2.21388 11.0131C2.21388 15.7043 6.03024 19.5193 10.7188 19.5193C15.41 19.5193 19.2251 15.7043 19.2251 11.0131C19.2251 6.32321 15.41 2.50816 10.7188 2.50816Z" fill="white"/>
<path d="M11.2518 2.58838H10.0586V20.8147H11.2518V2.58838Z" fill="white"/>
<path d="M19.0659 10.353H1V11.5462H19.0659V10.353Z" fill="white"/>
<path d="M18.3488 6.4707H2.29395V7.64317H18.3488V6.4707Z" fill="white"/>
<path d="M18.3488 14.2354H2.29395V15.4285H18.3488V14.2354Z" fill="white"/>
<path fill-rule="evenodd" clip-rule="evenodd" d="M10.4695 20.517C7.10871 18.8696 4.93848 15.0921 4.93848 10.8927C4.93848 6.7903 7.03883 3.04771 10.2935 1.35889L10.8901 2.50677C8.05989 3.97818 6.23259 7.26912 6.23259 10.8927C6.23259 14.6003 8.12071 17.9223 11.0389 19.3536L10.4695 20.517Z" fill="white"/>
<path fill-rule="evenodd" clip-rule="evenodd" d="M11.0161 20.4329L10.4092 19.2902C13.1773 17.8227 14.9658 14.5266 14.9658 10.8927C14.9658 7.30149 13.2071 4.02091 10.4881 2.53655L11.108 1.40161C14.2372 3.10726 16.2599 6.83302 16.2599 10.8927C16.2612 15.0015 14.2009 18.7454 11.0161 20.4329Z" fill="white"/>
</svg>
